<svg xmlns="http://www.w3.org/2000/svg" width="256" height="256" fill="none" viewBox="0 0 256 256">
  <path d="m233.6 150.9-18.66-17.82c-2.23 10.07-10.01 17.85-19.3 19.71l14.69 14.69c8.35 7.42 11.01 16.14 10.93 23.18-0.14 16.39-13.05 31.79-31.43 31.79-10.8 0-18.15-4.67-24.75-12.01l-18.15-19.33 38.53-38.82c-9.66-2.01-17.33-9.55-19.38-19.17l-38.55 39.2-37.75-38.92c-2.1 9.88-9.74 17.53-19.62 19.29l38.25 38.25-19.33 19.67c-7.07 7.17-14 11.84-24.8 11.84-17.44 0-30.35-14.98-30.49-31.37-0.07-8.14 3.14-16.21 10-22.74l16.07-16.08c-10.06-1.91-18-9.52-19.83-18.79l-18 18.09c-12.48 12.85-15.14 26.61-15.14 39.17 0 30 24.56 58.18 57.53 58.18 18.31 0 32.51-7.14 43.61-18.98l19.67-20.35 20 20.18c11.3 11.36 24.93 19.15 41.83 19.15 31.98 0 58.7-27.84 58.7-58.28 0-15.45-5.69-29.85-14.63-39.73z" fill="#576A86"/>
  <path d="m120.9 39.78-14.87-15.87c-11.16-11.8-23.16-16.6-40.63-16.6-32.97 0-58.54 26.68-58.54 58.9 0 15.42 5.9 28.95 17.39 40.99l15.11 15.91c2.12-10.03 8.36-16.83 20.02-19.26l-15.35-16.25c-7.41-7.41-10.48-15.48-10.27-23.09 0.62-16.25 13.47-30.24 30.7-30.24 9.66 0 17.76 4.04 23.48 10.77l15.97 14.2c2.16-10.13 8.19-17.23 18.29-19.53l-1.3 0.07z" fill="#576A86"/>
  <path d="m190.1 7.07c-16.46 0-30.06 6.14-40.43 16.81l-16.84 15.63 0.07 0.17c9.33 2.47 16.23 9.81 18.09 19.17l17.14-16.6c6.93-6.84 14.51-8.26 21.7-8.26 16.9 0 31.6 14.27 31.6 31.53 0 9.66-5.1 18.41-11.1 24.1l-14.79 14.62c10.37 2.08 17.75 9.87 19.44 19.31l17.1-17.64c11.72-12.25 16.35-25.85 16.35-39.61 0.04-31.31-24.14-59.23-58.33-59.23z" fill="#576A86"/>
  <path d="m151.4 70.07c-2.76 9.74-10.67 18.29-19.67 19.07l34.52 34c2.19-9.81 9.26-17.23 18.99-19.28l-33.84-33.79z" fill="#576A86"/>
  <path d="m103.7 70.07-33.86 33.86c9.73 2.08 17.6 9.77 19.66 19.04l32.63-33.21c-10.44-2.09-16.44-9.5-18.43-19.69z" fill="#576A86"/>
  <path d="m64.61 112.7h-0.07c-9.66 0-15.66 8.07-15.66 15.48 0 9.03 7.67 15.87 15.73 15.79 9.3 0 15.77-8.07 15.77-15.48 0-9.03-7.45-15.79-15.77-15.79z" fill="#576A86"/>
  <path d="m190.3 113h-0.07c-9.66 0-15.38 8.07-15.38 15.48 0 9.03 8.05 15.56 15.45 15.49 8.32 0 15.64-7.76 15.64-15.17 0-9.55-7.32-15.8-15.64-15.8z" fill="#576A86"/>
  <path d="m127.6 48.02h-0.07c-9.66 0-15.39 7.97-15.39 15.94 0 9.43 7.46 15.96 15.46 15.89 9.3 0 15.63-7.97 15.63-15.38 0-9.44-7.07-16.45-15.63-16.45z" fill="url(#paint0_linear_626_2)"/>
  <defs>
    <linearGradient id="paint0_linear_626_2" x1="116.5" x2="138.8" y1="51.21" y2="76.41" gradientUnits="userSpaceOnUse">
      <stop stop-color="#C5281B" offset="0"/>
      <stop stop-color="#C62222" offset="1"/>
    </linearGradient>
  </defs>
</svg>